# xmcd
# 
# Track frame offsets:
#     150
#     16113
#     33614
#     48060
#     63340
#     81587
#     95690
#     112375
#     130788
#     150778
#     166657
#     184769
#     200172
#     218635
# 
# Disc length: 3158
# 
# Revision: 3
# Processed by: cddbd v1.5.2PL0 Copyright (c) Steve Scherf et al.
# Submitted via: fre:ac v1.0.31
# 
DISCID=b80c540e
DTITLE=Juanes - La Vida... Es Un Ratico
DYEAR=2007
DGENRE=Pop/Rock
TTITLE0=No Creo En El Jamás
TTITLE1=Clase De Amor
TTITLE2=Me Enamora
TTITLE3=Hoy Me Voy
TTITLE4=La Vida... Es Un Ratico
TTITLE5=Gotas De Agua Dulce
TTITLE6=La Mejor Parte De Mí
TTITLE7=Minas Piedras Ft. Andrés Calamaro
TTITLE8=Tú y Yo
TTITLE9=Báilala
TTITLE10=Difícil
TTITLE11=Tres
TTITLE12=Bandera De Manos Ft. Campino
TTITLE13=Bandera De Manos
EXTD=
EXTT0=
EXTT1=
EXTT2=
EXTT3=
EXTT4=
EXTT5=
EXTT6=
EXTT7=
EXTT8=
EXTT9=
EXTT10=
EXTT11=
EXTT12=
EXTT13=
PLAYORDER=
